#!OML:ASF X:\für Bonn\!DataBase\2005_08_10_Bjorn_Final\c3d\bjorn.ASF
:FULLY-SPECIFIED
:DEGREES
89
root 4.22429 16.0669 25.6841 6.18061 -7.73704 2.86342
lowerback 11.1696 0.412877 0.563546
upperback 9.8827 0.588567 -2.00777
thorax 4.13162 0.38427 -2.45624
lowerneck -10.9034 -2.08407 0.503021
upperneck -9.09251 -2.86071 0.313196
head -1.03338 -1.46835 -0.0474143
rclavicle 2.50966e-015 1.90833e-014
rhumerus -34.9921 -49.8678 -73.6177
rradius 35.5121
rwrist -160.931
rhand 8.49208e-013 -3.76896e-013
rfingers 7.12502
rthumb 25.5904 -28.3008
lclavicle 2.50966e-015 1.90833e-014
lhumerus -17.1219 11.374 91.4558
lradius 27.0424
lwrist 4.27456
lhand 2.10712e-014 -9.09639e-013
lfingers 7.12502
lthumb 25.5904 28.3008
rfemur -42.0521 -0.227055 8.35411
rtibia 79.7667
rfoot -36.8596 13.146
rtoes -22.6874
lfemur -42.5614 -2.61919 -18.5412
ltibia 80.2809
lfoot -31.5355 7.52604
ltoes -35.5504
90
root 4.21782 16.0474 25.7973 6.6406 -7.72248 2.90321
lowerback 11.1878 0.374282 0.531916
upperback 9.7132 0.534348 -2.0335
thorax 3.93627 0.353761 -2.46112
lowerneck -11.0809 -2.10259 0.462141
upperneck -10.1822 -2.88153 0.399595
head -1.34757 -1.48293 -0.00839968
rclavicle -1.3418e-015 2.18663e-014
rhumerus -39.5621 -55.7202 -66.9182
rradius 32.2415
rwrist -155.088
rhand 9.89153e-013 4.8583e-013
rfingers 7.12502
rthumb 25.5904 -28.3008
lclavicle -1.3418e-015 2.18663e-014
lhumerus -16.6207 14.8769 90.5901
lradius 23.9131
lwrist 4.56672
lhand 3.51451e-013 8.015e-013
lfingers 7.12502
lthumb 25.5904 28.3008
rfemur -42.1018 0.159788 8.24587
rtibia 79.9348
rfoot -37.4755 12.6567
rtoes -23.544
lfemur -42.7522 -3.31481 -18.5859
ltibia 80.5637
lfoot -31.7117 8.63733
ltoes -36.9356
91
root 4.20881 16.0568 25.9183 7.09064 -7.70847 2.92515
lowerback 11.1393 0.340618 0.533398
upperback 9.55146 0.489866 -2.0764
thorax 3.78712 0.330984 -2.50269
lowerneck -11.3729 -2.10659 0.455448
upperneck -11.115 -2.88635 0.475654
head -1.59936 -1.4901 0.0202149
rclavicle -3.50358e-015 -9.29318e-015
rhumerus -46.4988 -60.7641 -58.034
rradius 29.858
rwrist -149.669
rhand 5.725e-014 -5.56597e-013
rfingers 7.12502
rthumb 25.5904 -28.3008
lclavicle -3.50358e-015 -9.29318e-015
lhumerus -16.6676 17.6279 89.5874
lradius 21.9761
lwrist 5.54168
lhand -1.39149e-013 4.09099e-013
lfingers 7.12502
lthumb 25.5904 28.3008
rfemur -41.9396 0.640557 8.18587
rtibia 79.7731
rfoot -37.904 12.25
rtoes -23.7723
lfemur -42.7883 -3.9339 -18.5867
ltibia 80.6009
lfoot -31.912 9.5191
ltoes -38.121
92
root 4.19811 16.0927 26.0446 7.58064 -7.6896 2.97709
lowerback 10.9724 0.305774 0.451262
upperback 9.38035 0.438115 -2.09626
thorax 3.69063 0.299671 -2.47157
lowerneck -11.741 -2.09585 0.450758
upperneck -11.9695 -2.87303 0.527696
head -1.81803 -1.48797 0.0402531
rclavicle -3.8266e-015 -2.21148e-014
rhumerus -56.0804 -64.8697 -46.4561
rradius 28.2256
rwrist -143.899
rhand -1.60618e-012 -4.62771e-013
rfingers 7.12502
rthumb 25.5904 -28.3008
lclavicle -3.8266e-015 -2.21148e-014
lhumerus -17.0591 20.0072 88.4934
lradius 20.8234
lwrist 6.95076
lhand -7.63333e-014 8.7008e-013
lfingers 7.12502
lthumb 25.5904 28.3008
rfemur -41.6541 1.1771 8.10371
rtibia 79.3135
rfoot -38.161 11.9078
rtoes -23.5383
lfemur -42.7421 -4.49968 -18.6116
ltibia 80.3881
lfoot -32.1201 10.0874
ltoes -38.7032
93
root 4.18536 16.1486 26.1784 8.10671 -7.69165 3.07205
lowerback 10.5754 0.287885 0.31514
upperback 9.2759 0.408196 -2.12834
thorax 3.79194 0.278787 -2.42331
lowerneck -12.1542 -2.07977 0.481425
upperneck -12.8714 -2.85663 0.577535
head -2.04948 -1.48629 0.0540604
rclavicle -6.95746e-015 -2.08724e-014
rhumerus -66.6374 -67.3308 -34.1505
rradius 27.2378
rwrist -139.81
rhand -1.49486e-012 -2.62396e-013
rfingers 7.12502
rthumb 25.5904 -28.3008
lclavicle -6.95746e-015 -2.08724e-014
lhumerus -17.5139 22.0649 87.3529
lradius 20.2992
lwrist 8.93456
lhand -7.31528e-014 -6.98728e-014
lfingers 7.12502
lthumb 25.5904 28.3008
rfemur -41.2946 1.61734 7.98664
rtibia 78.5956
rfoot -38.233 11.6215
rtoes -23.4154
lfemur -42.5858 -4.94321 -18.6866
ltibia 79.9242
lfoot -32.3722 10.2899
ltoes -38.7613
94
root 4.17217 16.2272 26.324 8.61554 -7.69633 3.09617
lowerback 9.96384 0.269617 0.243966
upperback 9.22892 0.385551 -2.13486
thorax 4.07366 0.265578 -2.38478
lowerneck -12.2434 -2.04995 0.546458
upperneck -14.1036 -2.82733 0.588023
head -2.45039 -1.48122 0.0570733
rclavicle 1.83876e-015 -1.78906e-014
rhumerus -75.3789 -68.14 -23.9863
rradius 26.7393
rwrist -137.754
rhand -3.37139e-013 -7.63333e-014
rfingers 7.12502
rthumb 25.5904 -28.3008
lclavicle 1.83876e-015 -1.78906e-014
lhumerus -18.2118 23.5609 86.2336
lradius 20.4808
lwrist 11.5139
lhand -2.17073e-013 1.70085e-013
lfingers 7.12502
lthumb 25.5904 28.3008
rfemur -40.7252 1.90054 7.94905
rtibia 77.5816
rfoot -38.1206 11.5671
rtoes -22.8792
lfemur -42.2015 -5.23412 -18.6964
ltibia 79.1459
lfoot -32.5984 9.99457
ltoes -38.1779
95
root 4.15762 16.3284 26.4866 9.07721 -7.68593 2.99997
lowerback 9.19495 0.255006 0.329296
upperback 9.15624 0.378594 -2.1382
thorax 4.41832 0.268959 -2.43153
lowerneck -12.0008 -2.03371 0.654881
upperneck -15.3989 -2.81662 0.613609
head -2.93855 -1.48868 0.0622443
rclavicle -1.799e-014 5.96354e-015
rhumerus -81.1355 -67.6346 -17.2483
rradius 26.7988
rwrist -138.276
rhand 4.67542e-013 -1.90833e-013
rfingers 7.12502
rthumb 25.5904 -28.3008
lclavicle -1.799e-014 5.96354e-015
lhumerus -19.5355 24.036 85.068
lradius 21.7882
lwrist 15.1214
lhand -1.37559e-013 -3.92699e-013
lfingers 7.12502
lthumb 25.5904 28.3008
rfemur -39.8765 1.99686 8.06404
rtibia 76.2613
rfoot -37.8811 11.5655
rtoes -22.7349
lfemur -41.474 -5.34005 -18.6098
ltibia 78.0117
lfoot -32.7525 9.16922
ltoes -36.8906
